solid OpenSCAD_Model
  facet normal -1 0 0
    outer loop
      vertex 3.2 32 0
      vertex 3.2 39.8 4
      vertex 3.2 39.8 0
    endloop
  endfacet
  facet normal -1 -0 0
    outer loop
      vertex 3.2 39.8 4
      vertex 3.2 32 0
      vertex 3.2 32 4
    endloop
  endfacet
  facet normal -1 0 0
    outer loop
      vertex 3.2 44.8 0
      vertex 3.2 65 4
      vertex 3.2 65 0
    endloop
  endfacet
  facet normal -1 -0 0
    outer loop
      vertex 3.2 65 4
      vertex 3.2 44.8 0
      vertex 3.2 44.8 4
    endloop
  endfacet
  facet normal -0 0 1
    outer loop
      vertex 0 44.8 4
      vertex 3.2 39.8 4
      vertex 3.2 44.8 4
    endloop
  endfacet
  facet normal 0 0 1
    outer loop
      vertex 3.2 39.8 4
      vertex 0 44.8 4
      vertex 0 39.8 4
    endloop
  endfacet
  facet normal 0 0 1
    outer loop
      vertex 3.2 44.8 4
      vertex 3.3 65 4
      vertex 3.2 65 4
    endloop
  endfacet
  facet normal 0 0 1
    outer loop
      vertex 3.3 65 4
      vertex 3.2 44.8 4
      vertex 3.3 32 4
    endloop
  endfacet
  facet normal -0 0 1
    outer loop
      vertex 3.2 39.8 4
      vertex 3.3 32 4
      vertex 3.2 44.8 4
    endloop
  endfacet
  facet normal 0 0 1
    outer loop
      vertex 3.3 32 4
      vertex 3.2 39.8 4
      vertex 3.2 32 4
    endloop
  endfacet
  facet normal 0 0 1
    outer loop
      vertex 3.3 65 4
      vertex 6.28736 71 4
      vertex 3.3 71 4
    endloop
  endfacet
  facet normal 0 0 1
    outer loop
      vertex 3.3 32 4
      vertex 6.28736 71 4
      vertex 3.3 65 4
    endloop
  endfacet
  facet normal 0 0 1
    outer loop
      vertex 6.28736 71 4
      vertex 3.3 32 4
      vertex 6.28736 1 4
    endloop
  endfacet
  facet normal 0 0 1
    outer loop
      vertex 6.28736 1 4
      vertex 3.3 32 4
      vertex 3.3 1 4
    endloop
  endfacet
  facet normal -0 0 1
    outer loop
      vertex 19.3126 71 4
      vertex 22.3 65 4
      vertex 22.3 71 4
    endloop
  endfacet
  facet normal 0 0 1
    outer loop
      vertex 22.3 65 4
      vertex 19.3126 71 4
      vertex 22.3 32 4
    endloop
  endfacet
  facet normal 0 0 1
    outer loop
      vertex 19.3126 1 4
      vertex 22.3 32 4
      vertex 19.3126 71 4
    endloop
  endfacet
  facet normal 0 0 1
    outer loop
      vertex 22.3 32 4
      vertex 19.3126 1 4
      vertex 22.3 1 4
    endloop
  endfacet
  facet normal -0 0 1
    outer loop
      vertex 22.3 65 4
      vertex 22.4 44.8 4
      vertex 22.4 65 4
    endloop
  endfacet
  facet normal 0 0 1
    outer loop
      vertex 22.4 44.8 4
      vertex 22.3 65 4
      vertex 22.4 39.8 4
    endloop
  endfacet
  facet normal 0 0 1
    outer loop
      vertex 22.3 32 4
      vertex 22.4 39.8 4
      vertex 22.3 65 4
    endloop
  endfacet
  facet normal 0 0 1
    outer loop
      vertex 22.4 39.8 4
      vertex 22.3 32 4
      vertex 22.4 32 4
    endloop
  endfacet
  facet normal -0 0 1
    outer loop
      vertex 22.4 44.8 4
      vertex 25.6 39.8 4
      vertex 25.6 44.8 4
    endloop
  endfacet
  facet normal 0 0 1
    outer loop
      vertex 25.6 39.8 4
      vertex 22.4 44.8 4
      vertex 22.4 39.8 4
    endloop
  endfacet
  facet normal 1 -0 0
    outer loop
      vertex 22.4 32 4
      vertex 22.4 39.8 0
      vertex 22.4 39.8 4
    endloop
  endfacet
  facet normal 1 0 0
    outer loop
      vertex 22.4 39.8 0
      vertex 22.4 32 4
      vertex 22.4 32 0
    endloop
  endfacet
  facet normal 1 -0 0
    outer loop
      vertex 22.4 44.8 4
      vertex 22.4 65 0
      vertex 22.4 65 4
    endloop
  endfacet
  facet normal 1 0 0
    outer loop
      vertex 22.4 65 0
      vertex 22.4 44.8 4
      vertex 22.4 44.8 0
    endloop
  endfacet
  facet normal 0 -1 -0
    outer loop
      vertex 11.9666 71 10.0028
      vertex 8.1029 71 2.70601
      vertex 12.226 71 9.86418
    endloop
  endfacet
  facet normal 0 -1 0
    outer loop
      vertex 8.64865 71 2.42794
      vertex 12.226 71 9.86418
      vertex 8.1029 71 2.70601
    endloop
  endfacet
  facet normal -0 -1 0
    outer loop
      vertex 19.0149 71 3.7375
      vertex 12.8 71 9.75
      vertex 18.5309 71 3.36208
    endloop
  endfacet
  facet normal 0 -1 0
    outer loop
      vertex 12.8 71 9.75
      vertex 19.0149 71 3.7375
      vertex 19.3126 71 4
    endloop
  endfacet
  facet normal 0 -1 0
    outer loop
      vertex 9.21078 71 2.18468
      vertex 12.226 71 9.86418
      vertex 8.64865 71 2.42794
    endloop
  endfacet
  facet normal 0 -1 0
    outer loop
      vertex 12.8 71 9.75
      vertex 18.0243 71 3.0178
      vertex 18.5309 71 3.36208
    endloop
  endfacet
  facet normal 0 -1 0
    outer loop
      vertex 9.72375 71 2
      vertex 12.226 71 9.86418
      vertex 9.21078 71 2.18468
    endloop
  endfacet
  facet normal 0 -1 0
    outer loop
      vertex 12.8 71 9.75
      vertex 17.4971 71 2.70601
      vertex 18.0243 71 3.0178
    endloop
  endfacet
  facet normal 0 -1 -0
    outer loop
      vertex 12.226 71 9.86418
      vertex 9.72375 71 2
      vertex 12.5074 71 9.77882
    endloop
  endfacet
  facet normal 0 -1 0
    outer loop
      vertex 12.8 71 9.75
      vertex 16.9513 71 2.42794
      vertex 17.4971 71 2.70601
    endloop
  endfacet
  facet normal 0 -1 -0
    outer loop
      vertex 12.5074 71 9.77882
      vertex 9.72375 71 2
      vertex 12.8 71 9.75
    endloop
  endfacet
  facet normal 0 -1 0
    outer loop
      vertex 12.8 71 9.75
      vertex 16.3892 71 2.18468
      vertex 16.9513 71 2.42794
    endloop
  endfacet
  facet normal 0 -1 0
    outer loop
      vertex 15.8762 71 2
      vertex 12.8 71 9.75
      vertex 9.72375 71 2
    endloop
  endfacet
  facet normal 0 -1 0
    outer loop
      vertex 12.8 71 9.75
      vertex 15.8762 71 2
      vertex 16.3892 71 2.18468
    endloop
  endfacet
  facet normal 0 -1 0
    outer loop
      vertex 3.3 71 20
      vertex 12.8 71 12.75
      vertex 22.3 71 20
    endloop
  endfacet
  facet normal 0 -1 0
    outer loop
      vertex 3.3 71 20
      vertex 12.5074 71 12.7212
      vertex 12.8 71 12.75
    endloop
  endfacet
  facet normal 0 -1 0
    outer loop
      vertex 3.3 71 20
      vertex 12.226 71 12.6358
      vertex 12.5074 71 12.7212
    endloop
  endfacet
  facet normal 0 -1 0
    outer loop
      vertex 3.3 71 20
      vertex 11.9666 71 12.4972
      vertex 12.226 71 12.6358
    endloop
  endfacet
  facet normal 0 -1 0
    outer loop
      vertex 3.3 71 20
      vertex 11.7393 71 12.3107
      vertex 11.9666 71 12.4972
    endloop
  endfacet
  facet normal 0 -1 0
    outer loop
      vertex 3.3 71 20
      vertex 11.5528 71 12.0834
      vertex 11.7393 71 12.3107
    endloop
  endfacet
  facet normal 0 -1 0
    outer loop
      vertex 3.3 71 20
      vertex 11.4142 71 11.824
      vertex 11.5528 71 12.0834
    endloop
  endfacet
  facet normal 0 -1 0
    outer loop
      vertex 3.3 71 20
      vertex 11.3288 71 11.5426
      vertex 11.4142 71 11.824
    endloop
  endfacet
  facet normal 0 -1 0
    outer loop
      vertex 3.3 71 20
      vertex 11.3 71 11.25
      vertex 11.3288 71 11.5426
    endloop
  endfacet
  facet normal 0 -1 0
    outer loop
      vertex 3.3 71 4
      vertex 11.3 71 11.25
      vertex 3.3 71 20
    endloop
  endfacet
  facet normal 0 -1 -0
    outer loop
      vertex 11.3 71 11.25
      vertex 3.3 71 4
      vertex 11.3288 71 10.9574
    endloop
  endfacet
  facet normal 0 -1 0
    outer loop
      vertex 6.28736 71 4
      vertex 11.3288 71 10.9574
      vertex 3.3 71 4
    endloop
  endfacet
  facet normal 0 -1 -0
    outer loop
      vertex 11.3288 71 10.9574
      vertex 6.28736 71 4
      vertex 11.4142 71 10.676
    endloop
  endfacet
  facet normal 0 -1 0
    outer loop
      vertex 7.06909 71 3.36208
      vertex 11.9666 71 10.0028
      vertex 6.58512 71 3.7375
    endloop
  endfacet
  facet normal 0 -1 -0
    outer loop
      vertex 11.7393 71 10.1893
      vertex 6.58512 71 3.7375
      vertex 11.9666 71 10.0028
    endloop
  endfacet
  facet normal 0 -1 0
    outer loop
      vertex 6.58512 71 3.7375
      vertex 11.7393 71 10.1893
      vertex 6.28736 71 4
    endloop
  endfacet
  facet normal 0 -1 -0
    outer loop
      vertex 11.5528 71 10.4166
      vertex 6.28736 71 4
      vertex 11.7393 71 10.1893
    endloop
  endfacet
  facet normal 0 -1 -0
    outer loop
      vertex 11.4142 71 10.676
      vertex 6.28736 71 4
      vertex 11.5528 71 10.4166
    endloop
  endfacet
  facet normal 0 -1 0
    outer loop
      vertex 13.0926 71 12.7212
      vertex 22.3 71 20
      vertex 12.8 71 12.75
    endloop
  endfacet
  facet normal 0 -1 0
    outer loop
      vertex 13.374 71 12.6358
      vertex 22.3 71 20
      vertex 13.0926 71 12.7212
    endloop
  endfacet
  facet normal 0 -1 0
    outer loop
      vertex 13.6334 71 12.4972
      vertex 22.3 71 20
      vertex 13.374 71 12.6358
    endloop
  endfacet
  facet normal 0 -1 0
    outer loop
      vertex 13.8607 71 12.3107
      vertex 22.3 71 20
      vertex 13.6334 71 12.4972
    endloop
  endfacet
  facet normal 0 -1 0
    outer loop
      vertex 14.0472 71 12.0834
      vertex 22.3 71 20
      vertex 13.8607 71 12.3107
    endloop
  endfacet
  facet normal 0 -1 0
    outer loop
      vertex 14.1858 71 11.824
      vertex 22.3 71 20
      vertex 14.0472 71 12.0834
    endloop
  endfacet
  facet normal 0 -1 0
    outer loop
      vertex 14.2712 71 11.5426
      vertex 22.3 71 20
      vertex 14.1858 71 11.824
    endloop
  endfacet
  facet normal 0 -1 0
    outer loop
      vertex 14.3 71 11.25
      vertex 22.3 71 20
      vertex 14.2712 71 11.5426
    endloop
  endfacet
  facet normal 0 -1 0
    outer loop
      vertex 22.3 71 4
      vertex 14.3 71 11.25
      vertex 14.2712 71 10.9574
    endloop
  endfacet
  facet normal 0 -1 0
    outer loop
      vertex 19.3126 71 4
      vertex 14.2712 71 10.9574
      vertex 14.1858 71 10.676
    endloop
  endfacet
  facet normal 0 -1 0
    outer loop
      vertex 19.3126 71 4
      vertex 14.1858 71 10.676
      vertex 14.0472 71 10.4166
    endloop
  endfacet
  facet normal 0 -1 0
    outer loop
      vertex 19.3126 71 4
      vertex 14.0472 71 10.4166
      vertex 13.8607 71 10.1893
    endloop
  endfacet
  facet normal 0 -1 0
    outer loop
      vertex 7.57569 71 3.0178
      vertex 11.9666 71 10.0028
      vertex 7.06909 71 3.36208
    endloop
  endfacet
  facet normal 0 -1 0
    outer loop
      vertex 8.1029 71 2.70601
      vertex 11.9666 71 10.0028
      vertex 7.57569 71 3.0178
    endloop
  endfacet
  facet normal 0 -1 0
    outer loop
      vertex 12.8 71 9.75
      vertex 19.3126 71 4
      vertex 13.0926 71 9.77882
    endloop
  endfacet
  facet normal 0 -1 0
    outer loop
      vertex 13.0926 71 9.77882
      vertex 19.3126 71 4
      vertex 13.374 71 9.86418
    endloop
  endfacet
  facet normal 0 -1 0
    outer loop
      vertex 13.374 71 9.86418
      vertex 19.3126 71 4
      vertex 13.6334 71 10.0028
    endloop
  endfacet
  facet normal 0 -1 0
    outer loop
      vertex 19.3126 71 4
      vertex 13.8607 71 10.1893
      vertex 13.6334 71 10.0028
    endloop
  endfacet
  facet normal 0 -1 0
    outer loop
      vertex 14.2712 71 10.9574
      vertex 19.3126 71 4
      vertex 22.3 71 4
    endloop
  endfacet
  facet normal 0 -1 0
    outer loop
      vertex 14.3 71 11.25
      vertex 22.3 71 4
      vertex 22.3 71 20
    endloop
  endfacet
  facet normal 0 0 -1
    outer loop
      vertex 17.8 -3 0
      vertex 7.8 -3 0
      vertex 17.8 -1 0
    endloop
  endfacet
  facet normal 0 0 -1
    outer loop
      vertex 25.5 -1 0
      vertex 22.4 32 0
      vertex 25.5 32 0
    endloop
  endfacet
  facet normal 0 0 -1
    outer loop
      vertex 3.2 39.8 0
      vertex 22.4 39.8 0
      vertex 22.4 32 0
    endloop
  endfacet
  facet normal 0 0 -1
    outer loop
      vertex 22.4 39.8 0
      vertex 3.2 39.8 0
      vertex 22.4 44.8 0
    endloop
  endfacet
  facet normal 0 0 -1
    outer loop
      vertex 3.2 32 0
      vertex 22.4 32 0
      vertex 17.8 -1 0
    endloop
  endfacet
  facet normal 0 0 -1
    outer loop
      vertex 17.8 -1 0
      vertex 22.4 32 0
      vertex 25.5 -1 0
    endloop
  endfacet
  facet normal 0 0 -1
    outer loop
      vertex 22.4 39.8 0
      vertex 25.6 44.8 0
      vertex 25.6 39.8 0
    endloop
  endfacet
  facet normal -0 0 -1
    outer loop
      vertex 25.6 44.8 0
      vertex 22.4 39.8 0
      vertex 22.4 44.8 0
    endloop
  endfacet
  facet normal 0 0 -1
    outer loop
      vertex 22.4 65 0
      vertex 24.6 73 0
      vertex 24.6 65 0
    endloop
  endfacet
  facet normal 0 0 -1
    outer loop
      vertex 7.8 -1 0
      vertex 17.8 -1 0
      vertex 7.8 -3 0
    endloop
  endfacet
  facet normal 0 0 -1
    outer loop
      vertex 3.2 32 0
      vertex 17.8 -1 0
      vertex 7.8 -1 0
    endloop
  endfacet
  facet normal 0 0 -1
    outer loop
      vertex 3.2 39.8 0
      vertex 22.4 32 0
      vertex 3.2 32 0
    endloop
  endfacet
  facet normal -0 0 -1
    outer loop
      vertex 22.4 44.8 0
      vertex 3.2 39.8 0
      vertex 3.2 44.8 0
    endloop
  endfacet
  facet normal 0 0 -1
    outer loop
      vertex 22.4 44.8 0
      vertex 3.2 44.8 0
      vertex 22.4 65 0
    endloop
  endfacet
  facet normal 0 0 -1
    outer loop
      vertex 3.2 65 0
      vertex 22.4 65 0
      vertex 3.2 44.8 0
    endloop
  endfacet
  facet normal 0 0 -1
    outer loop
      vertex 22.4 65 0
      vertex 3.2 65 0
      vertex 24.6 73 0
    endloop
  endfacet
  facet normal 0 0 -1
    outer loop
      vertex 1 73 0
      vertex 3.2 65 0
      vertex 1 65 0
    endloop
  endfacet
  facet normal 0 0 -1
    outer loop
      vertex 3.2 65 0
      vertex 1 73 0
      vertex 24.6 73 0
    endloop
  endfacet
  facet normal 0 0 -1
    outer loop
      vertex 0 39.8 0
      vertex 3.2 44.8 0
      vertex 3.2 39.8 0
    endloop
  endfacet
  facet normal -0 0 -1
    outer loop
      vertex 3.2 44.8 0
      vertex 0 39.8 0
      vertex 0 44.8 0
    endloop
  endfacet
  facet normal 0 0 -1
    outer loop
      vertex 0.0999994 -1 0
      vertex 3.2 32 0
      vertex 7.8 -1 0
    endloop
  endfacet
  facet normal -0 0 -1
    outer loop
      vertex 3.2 32 0
      vertex 0.0999994 -1 0
      vertex 0.0999994 32 0
    endloop
  endfacet
  facet normal 0.661312 0 0.750111
    outer loop
      vertex 6.28736 71 4
      vertex 6.58512 1 3.7375
      vertex 6.58512 71 3.7375
    endloop
  endfacet
  facet normal 0.661312 0 0.750111
    outer loop
      vertex 6.58512 1 3.7375
      vertex 6.28736 71 4
      vertex 6.28736 1 4
    endloop
  endfacet
  facet normal -0.397147 0 0.917755
    outer loop
      vertex 16.3892 71 2.18468
      vertex 16.9513 1 2.42794
      vertex 16.9513 71 2.42794
    endloop
  endfacet
  facet normal -0.397147 0 0.917755
    outer loop
      vertex 16.9513 1 2.42794
      vertex 16.3892 71 2.18468
      vertex 16.3892 1 2.18468
    endloop
  endfacet
  facet normal 0.397147 0 0.917755
    outer loop
      vertex 8.64865 71 2.42794
      vertex 9.21078 1 2.18468
      vertex 9.21078 71 2.18468
    endloop
  endfacet
  facet normal 0.397147 0 0.917755
    outer loop
      vertex 9.21078 1 2.18468
      vertex 8.64865 71 2.42794
      vertex 8.64865 1 2.42794
    endloop
  endfacet
  facet normal 0.453992 0 0.891006
    outer loop
      vertex 8.1029 71 2.70601
      vertex 8.64865 1 2.42794
      vertex 8.64865 71 2.42794
    endloop
  endfacet
  facet normal 0.453992 0 0.891006
    outer loop
      vertex 8.64865 1 2.42794
      vertex 8.1029 71 2.70601
      vertex 8.1029 1 2.70601
    endloop
  endfacet
  facet normal -0.338738 0 0.940881
    outer loop
      vertex 15.8762 71 2
      vertex 16.3892 1 2.18468
      vertex 16.3892 71 2.18468
    endloop
  endfacet
  facet normal -0.338738 0 0.940881
    outer loop
      vertex 16.3892 1 2.18468
      vertex 15.8762 71 2
      vertex 15.8762 1 2
    endloop
  endfacet
  facet normal -0.562082 0 0.827081
    outer loop
      vertex 18.0243 71 3.0178
      vertex 18.5309 1 3.36208
      vertex 18.5309 71 3.36208
    endloop
  endfacet
  facet normal -0.562082 0 0.827081
    outer loop
      vertex 18.5309 1 3.36208
      vertex 18.0243 71 3.0178
      vertex 18.0243 1 3.0178
    endloop
  endfacet
  facet normal 0.338738 0 0.940881
    outer loop
      vertex 9.21078 71 2.18468
      vertex 9.72375 1 2
      vertex 9.72375 71 2
    endloop
  endfacet
  facet normal 0.338738 0 0.940881
    outer loop
      vertex 9.72375 1 2
      vertex 9.21078 71 2.18468
      vertex 9.21078 1 2.18468
    endloop
  endfacet
  facet normal 0.509041 0 0.860742
    outer loop
      vertex 7.57569 71 3.0178
      vertex 8.1029 1 2.70601
      vertex 8.1029 71 2.70601
    endloop
  endfacet
  facet normal 0.509041 0 0.860742
    outer loop
      vertex 8.1029 1 2.70601
      vertex 7.57569 71 3.0178
      vertex 7.57569 1 3.0178
    endloop
  endfacet
  facet normal 0 1 0
    outer loop
      vertex 13.6334 1 10.0028
      vertex 17.4971 1 2.70601
      vertex 13.374 1 9.86418
    endloop
  endfacet
  facet normal 0 1 -0
    outer loop
      vertex 16.9513 1 2.42794
      vertex 13.374 1 9.86418
      vertex 17.4971 1 2.70601
    endloop
  endfacet
  facet normal -0 1 0
    outer loop
      vertex 6.58512 1 3.7375
      vertex 12.8 1 9.75
      vertex 7.06909 1 3.36208
    endloop
  endfacet
  facet normal 0 1 0
    outer loop
      vertex 12.8 1 9.75
      vertex 6.58512 1 3.7375
      vertex 6.28736 1 4
    endloop
  endfacet
  facet normal 0 1 -0
    outer loop
      vertex 16.3892 1 2.18468
      vertex 13.374 1 9.86418
      vertex 16.9513 1 2.42794
    endloop
  endfacet
  facet normal 0 1 0
    outer loop
      vertex 12.8 1 9.75
      vertex 7.57569 1 3.0178
      vertex 7.06909 1 3.36208
    endloop
  endfacet
  facet normal 0 1 -0
    outer loop
      vertex 15.8762 1 2
      vertex 13.374 1 9.86418
      vertex 16.3892 1 2.18468
    endloop
  endfacet
  facet normal 0 1 0
    outer loop
      vertex 12.8 1 9.75
      vertex 8.1029 1 2.70601
      vertex 7.57569 1 3.0178
    endloop
  endfacet
  facet normal 0 1 0
    outer loop
      vertex 13.374 1 9.86418
      vertex 15.8762 1 2
      vertex 13.0926 1 9.77882
    endloop
  endfacet
  facet normal 0 1 0
    outer loop
      vertex 12.8 1 9.75
      vertex 8.64865 1 2.42794
      vertex 8.1029 1 2.70601
    endloop
  endfacet
  facet normal 0 1 0
    outer loop
      vertex 13.0926 1 9.77882
      vertex 15.8762 1 2
      vertex 12.8 1 9.75
    endloop
  endfacet
  facet normal 0 1 0
    outer loop
      vertex 12.8 1 9.75
      vertex 9.21078 1 2.18468
      vertex 8.64865 1 2.42794
    endloop
  endfacet
  facet normal 0 1 0
    outer loop
      vertex 9.72375 1 2
      vertex 12.8 1 9.75
      vertex 15.8762 1 2
    endloop
  endfacet
  facet normal 0 1 0
    outer loop
      vertex 12.8 1 9.75
      vertex 9.72375 1 2
      vertex 9.21078 1 2.18468
    endloop
  endfacet
  facet normal 0 1 0
    outer loop
      vertex 22.3 1 20
      vertex 12.8 1 12.75
      vertex 3.3 1 20
    endloop
  endfacet
  facet normal 0 1 0
    outer loop
      vertex 22.3 1 20
      vertex 13.0926 1 12.7212
      vertex 12.8 1 12.75
    endloop
  endfacet
  facet normal 0 1 0
    outer loop
      vertex 22.3 1 20
      vertex 13.374 1 12.6358
      vertex 13.0926 1 12.7212
    endloop
  endfacet
  facet normal 0 1 0
    outer loop
      vertex 22.3 1 20
      vertex 13.6334 1 12.4972
      vertex 13.374 1 12.6358
    endloop
  endfacet
  facet normal 0 1 0
    outer loop
      vertex 22.3 1 20
      vertex 13.8607 1 12.3107
      vertex 13.6334 1 12.4972
    endloop
  endfacet
  facet normal 0 1 0
    outer loop
      vertex 22.3 1 20
      vertex 14.0472 1 12.0834
      vertex 13.8607 1 12.3107
    endloop
  endfacet
  facet normal 0 1 0
    outer loop
      vertex 22.3 1 20
      vertex 14.1858 1 11.824
      vertex 14.0472 1 12.0834
    endloop
  endfacet
  facet normal 0 1 0
    outer loop
      vertex 22.3 1 20
      vertex 14.2712 1 11.5426
      vertex 14.1858 1 11.824
    endloop
  endfacet
  facet normal 0 1 0
    outer loop
      vertex 22.3 1 20
      vertex 14.3 1 11.25
      vertex 14.2712 1 11.5426
    endloop
  endfacet
  facet normal 0 1 -0
    outer loop
      vertex 22.3 1 4
      vertex 14.3 1 11.25
      vertex 22.3 1 20
    endloop
  endfacet
  facet normal 0 1 0
    outer loop
      vertex 14.3 1 11.25
      vertex 22.3 1 4
      vertex 14.2712 1 10.9574
    endloop
  endfacet
  facet normal 0 1 -0
    outer loop
      vertex 19.3126 1 4
      vertex 14.2712 1 10.9574
      vertex 22.3 1 4
    endloop
  endfacet
  facet normal 0 1 0
    outer loop
      vertex 14.2712 1 10.9574
      vertex 19.3126 1 4
      vertex 14.1858 1 10.676
    endloop
  endfacet
  facet normal 0 1 -0
    outer loop
      vertex 18.5309 1 3.36208
      vertex 13.6334 1 10.0028
      vertex 19.0149 1 3.7375
    endloop
  endfacet
  facet normal 0 1 0
    outer loop
      vertex 13.8607 1 10.1893
      vertex 19.0149 1 3.7375
      vertex 13.6334 1 10.0028
    endloop
  endfacet
  facet normal 0 1 -0
    outer loop
      vertex 19.0149 1 3.7375
      vertex 13.8607 1 10.1893
      vertex 19.3126 1 4
    endloop
  endfacet
  facet normal 0 1 0
    outer loop
      vertex 14.0472 1 10.4166
      vertex 19.3126 1 4
      vertex 13.8607 1 10.1893
    endloop
  endfacet
  facet normal 0 1 0
    outer loop
      vertex 14.1858 1 10.676
      vertex 19.3126 1 4
      vertex 14.0472 1 10.4166
    endloop
  endfacet
  facet normal 0 1 -0
    outer loop
      vertex 12.5074 1 12.7212
      vertex 3.3 1 20
      vertex 12.8 1 12.75
    endloop
  endfacet
  facet normal 0 1 -0
    outer loop
      vertex 12.226 1 12.6358
      vertex 3.3 1 20
      vertex 12.5074 1 12.7212
    endloop
  endfacet
  facet normal 0 1 -0
    outer loop
      vertex 11.9666 1 12.4972
      vertex 3.3 1 20
      vertex 12.226 1 12.6358
    endloop
  endfacet
  facet normal 0 1 -0
    outer loop
      vertex 11.7393 1 12.3107
      vertex 3.3 1 20
      vertex 11.9666 1 12.4972
    endloop
  endfacet
  facet normal 0 1 -0
    outer loop
      vertex 11.5528 1 12.0834
      vertex 3.3 1 20
      vertex 11.7393 1 12.3107
    endloop
  endfacet
  facet normal 0 1 -0
    outer loop
      vertex 11.4142 1 11.824
      vertex 3.3 1 20
      vertex 11.5528 1 12.0834
    endloop
  endfacet
  facet normal 0 1 -0
    outer loop
      vertex 11.3288 1 11.5426
      vertex 3.3 1 20
      vertex 11.4142 1 11.824
    endloop
  endfacet
  facet normal 0 1 -0
    outer loop
      vertex 11.3 1 11.25
      vertex 3.3 1 20
      vertex 11.3288 1 11.5426
    endloop
  endfacet
  facet normal 0 1 0
    outer loop
      vertex 3.3 1 4
      vertex 11.3 1 11.25
      vertex 11.3288 1 10.9574
    endloop
  endfacet
  facet normal 0 1 0
    outer loop
      vertex 6.28736 1 4
      vertex 11.3288 1 10.9574
      vertex 11.4142 1 10.676
    endloop
  endfacet
  facet normal 0 1 0
    outer loop
      vertex 6.28736 1 4
      vertex 11.4142 1 10.676
      vertex 11.5528 1 10.4166
    endloop
  endfacet
  facet normal 0 1 0
    outer loop
      vertex 6.28736 1 4
      vertex 11.5528 1 10.4166
      vertex 11.7393 1 10.1893
    endloop
  endfacet
  facet normal 0 1 -0
    outer loop
      vertex 18.0243 1 3.0178
      vertex 13.6334 1 10.0028
      vertex 18.5309 1 3.36208
    endloop
  endfacet
  facet normal 0 1 -0
    outer loop
      vertex 17.4971 1 2.70601
      vertex 13.6334 1 10.0028
      vertex 18.0243 1 3.0178
    endloop
  endfacet
  facet normal 0 1 0
    outer loop
      vertex 12.8 1 9.75
      vertex 6.28736 1 4
      vertex 12.5074 1 9.77882
    endloop
  endfacet
  facet normal 0 1 0
    outer loop
      vertex 12.5074 1 9.77882
      vertex 6.28736 1 4
      vertex 12.226 1 9.86418
    endloop
  endfacet
  facet normal 0 1 0
    outer loop
      vertex 12.226 1 9.86418
      vertex 6.28736 1 4
      vertex 11.9666 1 10.0028
    endloop
  endfacet
  facet normal 0 1 0
    outer loop
      vertex 6.28736 1 4
      vertex 11.7393 1 10.1893
      vertex 11.9666 1 10.0028
    endloop
  endfacet
  facet normal 0 1 0
    outer loop
      vertex 11.3288 1 10.9574
      vertex 6.28736 1 4
      vertex 3.3 1 4
    endloop
  endfacet
  facet normal 0 1 0
    outer loop
      vertex 11.3 1 11.25
      vertex 3.3 1 4
      vertex 3.3 1 20
    endloop
  endfacet
  facet normal -0.612909 0 0.790154
    outer loop
      vertex 18.5309 71 3.36208
      vertex 19.0149 1 3.7375
      vertex 19.0149 71 3.7375
    endloop
  endfacet
  facet normal -0.612909 0 0.790154
    outer loop
      vertex 19.0149 1 3.7375
      vertex 18.5309 71 3.36208
      vertex 18.5309 1 3.36208
    endloop
  endfacet
  facet normal -0.66131 0 0.750112
    outer loop
      vertex 19.0149 71 3.7375
      vertex 19.3126 1 4
      vertex 19.3126 71 4
    endloop
  endfacet
  facet normal -0.66131 0 0.750112
    outer loop
      vertex 19.3126 1 4
      vertex 19.0149 71 3.7375
      vertex 19.0149 1 3.7375
    endloop
  endfacet
  facet normal -0.453992 0 0.891006
    outer loop
      vertex 16.9513 71 2.42794
      vertex 17.4971 1 2.70601
      vertex 17.4971 71 2.70601
    endloop
  endfacet
  facet normal -0.453992 0 0.891006
    outer loop
      vertex 17.4971 1 2.70601
      vertex 16.9513 71 2.42794
      vertex 16.9513 1 2.42794
    endloop
  endfacet
  facet normal -0.50904 0 0.860743
    outer loop
      vertex 17.4971 71 2.70601
      vertex 18.0243 1 3.0178
      vertex 18.0243 71 3.0178
    endloop
  endfacet
  facet normal -0.50904 0 0.860743
    outer loop
      vertex 18.0243 1 3.0178
      vertex 17.4971 71 2.70601
      vertex 17.4971 1 2.70601
    endloop
  endfacet
  facet normal 0.612907 0 0.790155
    outer loop
      vertex 6.58512 71 3.7375
      vertex 7.06909 1 3.36208
      vertex 7.06909 71 3.36208
    endloop
  endfacet
  facet normal 0.612907 0 0.790155
    outer loop
      vertex 7.06909 1 3.36208
      vertex 6.58512 71 3.7375
      vertex 6.58512 1 3.7375
    endloop
  endfacet
  facet normal 0.562083 0 0.827081
    outer loop
      vertex 7.06909 71 3.36208
      vertex 7.57569 1 3.0178
      vertex 7.57569 71 3.0178
    endloop
  endfacet
  facet normal 0.562083 0 0.827081
    outer loop
      vertex 7.57569 1 3.0178
      vertex 7.06909 71 3.36208
      vertex 7.06909 1 3.36208
    endloop
  endfacet
  facet normal -0 0 1
    outer loop
      vertex 9.72375 71 2
      vertex 15.8762 1 2
      vertex 15.8762 71 2
    endloop
  endfacet
  facet normal 0 0 1
    outer loop
      vertex 15.8762 1 2
      vertex 9.72375 71 2
      vertex 9.72375 1 2
    endloop
  endfacet
  facet normal -1 0 0
    outer loop
      vertex 0.0999994 32 0
      vertex 0.0999994 31 9.25
      vertex 0.0999994 32 20
    endloop
  endfacet
  facet normal -1 0 0
    outer loop
      vertex 0.0999994 32 0
      vertex 0.0999994 2 9.25
      vertex 0.0999994 31 9.25
    endloop
  endfacet
  facet normal -1 0 0
    outer loop
      vertex 0.0999994 -1 20
      vertex 0.0999994 2 9.25
      vertex 0.0999994 -1 0
    endloop
  endfacet
  facet normal -1 0 0
    outer loop
      vertex 0.0999994 -1 0
      vertex 0.0999994 2 9.25
      vertex 0.0999994 32 0
    endloop
  endfacet
  facet normal -1 0 0
    outer loop
      vertex 0.0999994 31 13.25
      vertex 0.0999994 32 20
      vertex 0.0999994 31 9.25
    endloop
  endfacet
  facet normal -1 0 0
    outer loop
      vertex 0.0999994 2 13.25
      vertex 0.0999994 32 20
      vertex 0.0999994 31 13.25
    endloop
  endfacet
  facet normal -1 0 0
    outer loop
      vertex 0.0999994 2 13.25
      vertex 0.0999994 -1 20
      vertex 0.0999994 32 20
    endloop
  endfacet
  facet normal -1 0 0
    outer loop
      vertex 0.0999994 2 9.25
      vertex 0.0999994 -1 20
      vertex 0.0999994 2 13.25
    endloop
  endfacet
  facet normal 0 0 1
    outer loop
      vertex 3.3 32 20
      vertex 0.0999994 32 20
      vertex 3.3 1 20
    endloop
  endfacet
  facet normal 0 0 1
    outer loop
      vertex 22.3 1 20
      vertex 25.5 32 20
      vertex 22.3 32 20
    endloop
  endfacet
  facet normal 0 0 1
    outer loop
      vertex 25.5 32 20
      vertex 22.3 1 20
      vertex 25.5 -1 20
    endloop
  endfacet
  facet normal -0 0 1
    outer loop
      vertex 3.3 1 20
      vertex 25.5 -1 20
      vertex 22.3 1 20
    endloop
  endfacet
  facet normal 0 0 1
    outer loop
      vertex 3.3 1 20
      vertex 0.0999994 -1 20
      vertex 25.5 -1 20
    endloop
  endfacet
  facet normal 0 0 1
    outer loop
      vertex 0.0999994 -1 20
      vertex 3.3 1 20
      vertex 0.0999994 32 20
    endloop
  endfacet
  facet normal 1 0 0
    outer loop
      vertex 25.5 31 9.25
      vertex 25.5 32 20
      vertex 25.5 31 13.25
    endloop
  endfacet
  facet normal 1 0 0
    outer loop
      vertex 25.5 32 20
      vertex 25.5 2 13.25
      vertex 25.5 31 13.25
    endloop
  endfacet
  facet normal 1 0 0
    outer loop
      vertex 25.5 2 13.25
      vertex 25.5 -1 20
      vertex 25.5 2 9.25
    endloop
  endfacet
  facet normal 1 -0 0
    outer loop
      vertex 25.5 -1 20
      vertex 25.5 2 13.25
      vertex 25.5 32 20
    endloop
  endfacet
  facet normal 1 0 0
    outer loop
      vertex 25.5 32 20
      vertex 25.5 31 9.25
      vertex 25.5 32 0
    endloop
  endfacet
  facet normal 1 -0 0
    outer loop
      vertex 25.5 2 9.25
      vertex 25.5 32 0
      vertex 25.5 31 9.25
    endloop
  endfacet
  facet normal 1 0 0
    outer loop
      vertex 25.5 2 9.25
      vertex 25.5 -1 0
      vertex 25.5 32 0
    endloop
  endfacet
  facet normal 1 0 0
    outer loop
      vertex 25.5 -1 0
      vertex 25.5 2 9.25
      vertex 25.5 -1 20
    endloop
  endfacet
  facet normal 0 1 0
    outer loop
      vertex 25.5 32 20
      vertex 22.4 32 4
      vertex 22.3 32 20
    endloop
  endfacet
  facet normal 0 1 -0
    outer loop
      vertex 25.5 32 0
      vertex 22.4 32 4
      vertex 25.5 32 20
    endloop
  endfacet
  facet normal 0 1 0
    outer loop
      vertex 22.4 32 4
      vertex 25.5 32 0
      vertex 22.4 32 0
    endloop
  endfacet
  facet normal 0 1 0
    outer loop
      vertex 22.3 32 20
      vertex 22.4 32 4
      vertex 22.3 32 4
    endloop
  endfacet
  facet normal 0 1 0
    outer loop
      vertex 3.2 32 4
      vertex 3.3 32 20
      vertex 3.3 32 4
    endloop
  endfacet
  facet normal 0 1 0
    outer loop
      vertex 3.3 32 20
      vertex 3.2 32 4
      vertex 0.0999994 32 20
    endloop
  endfacet
  facet normal 0 1 0
    outer loop
      vertex 0.0999994 32 0
      vertex 3.2 32 4
      vertex 3.2 32 0
    endloop
  endfacet
  facet normal 0 1 0
    outer loop
      vertex 3.2 32 4
      vertex 0.0999994 32 0
      vertex 0.0999994 32 20
    endloop
  endfacet
  facet normal 0 -1 0
    outer loop
      vertex 0.0999994 -1 20
      vertex 12.8 -1 12.75
      vertex 25.5 -1 20
    endloop
  endfacet
  facet normal 0 -1 0
    outer loop
      vertex 0.0999994 -1 20
      vertex 12.5074 -1 12.7212
      vertex 12.8 -1 12.75
    endloop
  endfacet
  facet normal 0 -1 0
    outer loop
      vertex 0.0999994 -1 20
      vertex 12.226 -1 12.6358
      vertex 12.5074 -1 12.7212
    endloop
  endfacet
  facet normal 0 -1 0
    outer loop
      vertex 0.0999994 -1 20
      vertex 11.9666 -1 12.4972
      vertex 12.226 -1 12.6358
    endloop
  endfacet
  facet normal 0 -1 0
    outer loop
      vertex 0.0999994 -1 20
      vertex 11.7393 -1 12.3107
      vertex 11.9666 -1 12.4972
    endloop
  endfacet
  facet normal 0 -1 0
    outer loop
      vertex 0.0999994 -1 20
      vertex 11.5528 -1 12.0834
      vertex 11.7393 -1 12.3107
    endloop
  endfacet
  facet normal 0 -1 0
    outer loop
      vertex 0.0999994 -1 20
      vertex 11.4142 -1 11.824
      vertex 11.5528 -1 12.0834
    endloop
  endfacet
  facet normal 0 -1 0
    outer loop
      vertex 0.0999994 -1 20
      vertex 11.3288 -1 11.5426
      vertex 11.4142 -1 11.824
    endloop
  endfacet
  facet normal 0 -1 0
    outer loop
      vertex 0.0999994 -1 20
      vertex 11.3 -1 11.25
      vertex 11.3288 -1 11.5426
    endloop
  endfacet
  facet normal 0 -1 0
    outer loop
      vertex 0.0999994 -1 20
      vertex 11.3288 -1 10.9574
      vertex 11.3 -1 11.25
    endloop
  endfacet
  facet normal 0 -1 0
    outer loop
      vertex 0.0999994 -1 0
      vertex 11.3288 -1 10.9574
      vertex 0.0999994 -1 20
    endloop
  endfacet
  facet normal -0 -1 0
    outer loop
      vertex 7.8 -1 2
      vertex 11.3288 -1 10.9574
      vertex 0.0999994 -1 0
    endloop
  endfacet
  facet normal 0 -1 -0
    outer loop
      vertex 11.3288 -1 10.9574
      vertex 7.8 -1 2
      vertex 11.4142 -1 10.676
    endloop
  endfacet
  facet normal 0 -1 -0
    outer loop
      vertex 12.5074 -1 9.77882
      vertex 7.8 -1 2
      vertex 12.8 -1 9.75
    endloop
  endfacet
  facet normal 0 -1 -0
    outer loop
      vertex 12.226 -1 9.86418
      vertex 7.8 -1 2
      vertex 12.5074 -1 9.77882
    endloop
  endfacet
  facet normal 0 -1 -0
    outer loop
      vertex 11.9666 -1 10.0028
      vertex 7.8 -1 2
      vertex 12.226 -1 9.86418
    endloop
  endfacet
  facet normal 0 -1 -0
    outer loop
      vertex 11.7393 -1 10.1893
      vertex 7.8 -1 2
      vertex 11.9666 -1 10.0028
    endloop
  endfacet
  facet normal 0 -1 -0
    outer loop
      vertex 11.5528 -1 10.4166
      vertex 7.8 -1 2
      vertex 11.7393 -1 10.1893
    endloop
  endfacet
  facet normal 0 -1 -0
    outer loop
      vertex 11.4142 -1 10.676
      vertex 7.8 -1 2
      vertex 11.5528 -1 10.4166
    endloop
  endfacet
  facet normal 0 -1 -0
    outer loop
      vertex 7.8 -1 2
      vertex 0.0999994 -1 0
      vertex 7.8 -1 0
    endloop
  endfacet
  facet normal 0 -1 0
    outer loop
      vertex 13.0926 -1 12.7212
      vertex 25.5 -1 20
      vertex 12.8 -1 12.75
    endloop
  endfacet
  facet normal 0 -1 0
    outer loop
      vertex 13.374 -1 12.6358
      vertex 25.5 -1 20
      vertex 13.0926 -1 12.7212
    endloop
  endfacet
  facet normal 0 -1 0
    outer loop
      vertex 13.6334 -1 12.4972
      vertex 25.5 -1 20
      vertex 13.374 -1 12.6358
    endloop
  endfacet
  facet normal 0 -1 0
    outer loop
      vertex 13.8607 -1 12.3107
      vertex 25.5 -1 20
      vertex 13.6334 -1 12.4972
    endloop
  endfacet
  facet normal 0 -1 0
    outer loop
      vertex 14.0472 -1 12.0834
      vertex 25.5 -1 20
      vertex 13.8607 -1 12.3107
    endloop
  endfacet
  facet normal 0 -1 0
    outer loop
      vertex 14.1858 -1 11.824
      vertex 25.5 -1 20
      vertex 14.0472 -1 12.0834
    endloop
  endfacet
  facet normal 0 -1 0
    outer loop
      vertex 14.2712 -1 11.5426
      vertex 25.5 -1 20
      vertex 14.1858 -1 11.824
    endloop
  endfacet
  facet normal 0 -1 0
    outer loop
      vertex 14.3 -1 11.25
      vertex 25.5 -1 20
      vertex 14.2712 -1 11.5426
    endloop
  endfacet
  facet normal 0 -1 0
    outer loop
      vertex 14.2712 -1 10.9574
      vertex 25.5 -1 20
      vertex 14.3 -1 11.25
    endloop
  endfacet
  facet normal 0 -1 0
    outer loop
      vertex 17.8 -1 2
      vertex 14.2712 -1 10.9574
      vertex 14.1858 -1 10.676
    endloop
  endfacet
  facet normal 0 -1 0
    outer loop
      vertex 17.8 -1 2
      vertex 14.1858 -1 10.676
      vertex 14.0472 -1 10.4166
    endloop
  endfacet
  facet normal 0 -1 0
    outer loop
      vertex 17.8 -1 2
      vertex 14.0472 -1 10.4166
      vertex 13.8607 -1 10.1893
    endloop
  endfacet
  facet normal 0 -1 0
    outer loop
      vertex 17.8 -1 2
      vertex 12.8 -1 9.75
      vertex 7.8 -1 2
    endloop
  endfacet
  facet normal 0 -1 0
    outer loop
      vertex 12.8 -1 9.75
      vertex 17.8 -1 2
      vertex 13.0926 -1 9.77882
    endloop
  endfacet
  facet normal 0 -1 0
    outer loop
      vertex 13.0926 -1 9.77882
      vertex 17.8 -1 2
      vertex 13.374 -1 9.86418
    endloop
  endfacet
  facet normal 0 -1 0
    outer loop
      vertex 13.374 -1 9.86418
      vertex 17.8 -1 2
      vertex 13.6334 -1 10.0028
    endloop
  endfacet
  facet normal 0 -1 0
    outer loop
      vertex 13.6334 -1 10.0028
      vertex 17.8 -1 2
      vertex 13.8607 -1 10.1893
    endloop
  endfacet
  facet normal 0 -1 0
    outer loop
      vertex 14.2712 -1 10.9574
      vertex 17.8 -1 2
      vertex 25.5 -1 0
    endloop
  endfacet
  facet normal 0 -1 0
    outer loop
      vertex 25.5 -1 0
      vertex 17.8 -1 2
      vertex 17.8 -1 0
    endloop
  endfacet
  facet normal 0 -1 0
    outer loop
      vertex 14.2712 -1 10.9574
      vertex 25.5 -1 0
      vertex 25.5 -1 20
    endloop
  endfacet
  facet normal -1 0 0
    outer loop
      vertex 0 39.8 0
      vertex 0 44.8 4
      vertex 0 44.8 0
    endloop
  endfacet
  facet normal -1 -0 0
    outer loop
      vertex 0 44.8 4
      vertex 0 39.8 0
      vertex 0 39.8 4
    endloop
  endfacet
  facet normal 1 -0 0
    outer loop
      vertex 25.6 39.8 4
      vertex 25.6 44.8 0
      vertex 25.6 44.8 4
    endloop
  endfacet
  facet normal 1 0 0
    outer loop
      vertex 25.6 44.8 0
      vertex 25.6 39.8 4
      vertex 25.6 39.8 0
    endloop
  endfacet
  facet normal 0 -1 0
    outer loop
      vertex 0 39.8 0
      vertex 3.2 39.8 4
      vertex 0 39.8 4
    endloop
  endfacet
  facet normal 0 -1 -0
    outer loop
      vertex 3.2 39.8 4
      vertex 0 39.8 0
      vertex 3.2 39.8 0
    endloop
  endfacet
  facet normal 0 -1 0
    outer loop
      vertex 22.4 39.8 0
      vertex 25.6 39.8 4
      vertex 22.4 39.8 4
    endloop
  endfacet
  facet normal 0 -1 -0
    outer loop
      vertex 25.6 39.8 4
      vertex 22.4 39.8 0
      vertex 25.6 39.8 0
    endloop
  endfacet
  facet normal 0 1 -0
    outer loop
      vertex 25.6 44.8 0
      vertex 22.4 44.8 4
      vertex 25.6 44.8 4
    endloop
  endfacet
  facet normal 0 1 0
    outer loop
      vertex 22.4 44.8 4
      vertex 25.6 44.8 0
      vertex 22.4 44.8 0
    endloop
  endfacet
  facet normal 0 1 -0
    outer loop
      vertex 3.2 44.8 0
      vertex 0 44.8 4
      vertex 3.2 44.8 4
    endloop
  endfacet
  facet normal 0 1 0
    outer loop
      vertex 0 44.8 4
      vertex 3.2 44.8 0
      vertex 0 44.8 0
    endloop
  endfacet
  facet normal -1 0 0
    outer loop
      vertex 1 65 0
      vertex 1 73 7.45
      vertex 1 73 0
    endloop
  endfacet
  facet normal -1 -0 0
    outer loop
      vertex 1 73 7.45
      vertex 1 65 0
      vertex 1 73 11.45
    endloop
  endfacet
  facet normal -1 0 0
    outer loop
      vertex 1 65 20
      vertex 1 73 11.45
      vertex 1 65 0
    endloop
  endfacet
  facet normal -1 0 0
    outer loop
      vertex 1 73 11.45
      vertex 1 65 20
      vertex 1 73 20
    endloop
  endfacet
  facet normal -1 0 0
    outer loop
      vertex 1 73 7.45
      vertex 1 79 11.45
      vertex 1 79 7.45
    endloop
  endfacet
  facet normal -1 -0 0
    outer loop
      vertex 1 79 11.45
      vertex 1 73 7.45
      vertex 1 73 11.45
    endloop
  endfacet
  facet normal 0 0 1
    outer loop
      vertex 24.6 73 20
      vertex 22.3 71 20
      vertex 24.6 65 20
    endloop
  endfacet
  facet normal 0 0 1
    outer loop
      vertex 24.6 73 20
      vertex 3.3 71 20
      vertex 22.3 71 20
    endloop
  endfacet
  facet normal -0 0 1
    outer loop
      vertex 1 73 20
      vertex 3.3 71 20
      vertex 24.6 73 20
    endloop
  endfacet
  facet normal 0 0 1
    outer loop
      vertex 1 65 20
      vertex 3.3 71 20
      vertex 1 73 20
    endloop
  endfacet
  facet normal 0 0 1
    outer loop
      vertex 3.3 71 20
      vertex 1 65 20
      vertex 3.3 65 20
    endloop
  endfacet
  facet normal 0 0 1
    outer loop
      vertex 24.6 65 20
      vertex 22.3 71 20
      vertex 22.3 65 20
    endloop
  endfacet
  facet normal 1 -0 0
    outer loop
      vertex 24.6 65 20
      vertex 24.6 73 11.45
      vertex 24.6 73 20
    endloop
  endfacet
  facet normal 1 0 0
    outer loop
      vertex 24.6 65 0
      vertex 24.6 73 11.45
      vertex 24.6 65 20
    endloop
  endfacet
  facet normal 1 0 0
    outer loop
      vertex 24.6 73 11.45
      vertex 24.6 65 0
      vertex 24.6 73 7.45
    endloop
  endfacet
  facet normal 1 0 0
    outer loop
      vertex 24.6 73 7.45
      vertex 24.6 65 0
      vertex 24.6 73 0
    endloop
  endfacet
  facet normal 1 -0 0
    outer loop
      vertex 24.6 73 11.45
      vertex 24.6 79 7.45
      vertex 24.6 79 11.45
    endloop
  endfacet
  facet normal 1 0 0
    outer loop
      vertex 24.6 79 7.45
      vertex 24.6 73 11.45
      vertex 24.6 73 7.45
    endloop
  endfacet
  facet normal 0 1 -0
    outer loop
      vertex 24.6 73 0
      vertex 18.6 73 7.45
      vertex 24.6 73 7.45
    endloop
  endfacet
  facet normal 0 1 0
    outer loop
      vertex 18.6 73 7.45
      vertex 24.6 73 0
      vertex 7 73 7.45
    endloop
  endfacet
  facet normal 0 1 0
    outer loop
      vertex 1 73 0
      vertex 7 73 7.45
      vertex 24.6 73 0
    endloop
  endfacet
  facet normal 0 1 0
    outer loop
      vertex 7 73 7.45
      vertex 1 73 0
      vertex 1 73 7.45
    endloop
  endfacet
  facet normal 0 1 -0
    outer loop
      vertex 11.3 73 11.25
      vertex 7 73 11.45
      vertex 11.3288 73 11.5426
    endloop
  endfacet
  facet normal 0 1 0
    outer loop
      vertex 11.3288 73 10.9574
      vertex 7 73 11.45
      vertex 11.3 73 11.25
    endloop
  endfacet
  facet normal 0 1 0
    outer loop
      vertex 11.4142 73 10.676
      vertex 7 73 11.45
      vertex 11.3288 73 10.9574
    endloop
  endfacet
  facet normal 0 1 0
    outer loop
      vertex 7 73 7.45
      vertex 11.4142 73 10.676
      vertex 11.5528 73 10.4166
    endloop
  endfacet
  facet normal 0 1 0
    outer loop
      vertex 7 73 7.45
      vertex 11.5528 73 10.4166
      vertex 11.7393 73 10.1893
    endloop
  endfacet
  facet normal 0 1 0
    outer loop
      vertex 7 73 7.45
      vertex 11.7393 73 10.1893
      vertex 11.9666 73 10.0028
    endloop
  endfacet
  facet normal 0 1 0
    outer loop
      vertex 7 73 7.45
      vertex 11.9666 73 10.0028
      vertex 12.226 73 9.86418
    endloop
  endfacet
  facet normal 0 1 0
    outer loop
      vertex 7 73 7.45
      vertex 12.8 73 9.75
      vertex 18.6 73 7.45
    endloop
  endfacet
  facet normal 0 1 0
    outer loop
      vertex 12.8 73 9.75
      vertex 7 73 7.45
      vertex 12.5074 73 9.77882
    endloop
  endfacet
  facet normal 0 1 0
    outer loop
      vertex 12.5074 73 9.77882
      vertex 7 73 7.45
      vertex 12.226 73 9.86418
    endloop
  endfacet
  facet normal 0 1 0
    outer loop
      vertex 11.4142 73 10.676
      vertex 7 73 7.45
      vertex 7 73 11.45
    endloop
  endfacet
  facet normal 0 1 0
    outer loop
      vertex 24.6 73 20
      vertex 12.8 73 12.75
      vertex 1 73 20
    endloop
  endfacet
  facet normal 0 1 0
    outer loop
      vertex 24.6 73 20
      vertex 13.0926 73 12.7212
      vertex 12.8 73 12.75
    endloop
  endfacet
  facet normal 0 1 0
    outer loop
      vertex 24.6 73 20
      vertex 13.374 73 12.6358
      vertex 13.0926 73 12.7212
    endloop
  endfacet
  facet normal 0 1 0
    outer loop
      vertex 24.6 73 20
      vertex 13.6334 73 12.4972
      vertex 13.374 73 12.6358
    endloop
  endfacet
  facet normal 0 1 -0
    outer loop
      vertex 18.6 73 11.45
      vertex 13.6334 73 12.4972
      vertex 24.6 73 20
    endloop
  endfacet
  facet normal 0 1 0
    outer loop
      vertex 13.6334 73 12.4972
      vertex 18.6 73 11.45
      vertex 13.8607 73 12.3107
    endloop
  endfacet
  facet normal 0 1 0
    outer loop
      vertex 13.8607 73 12.3107
      vertex 18.6 73 11.45
      vertex 14.0472 73 12.0834
    endloop
  endfacet
  facet normal 0 1 0
    outer loop
      vertex 14.0472 73 12.0834
      vertex 18.6 73 11.45
      vertex 14.1858 73 11.824
    endloop
  endfacet
  facet normal 0 1 0
    outer loop
      vertex 18.6 73 11.45
      vertex 24.6 73 20
      vertex 24.6 73 11.45
    endloop
  endfacet
  facet normal 0 1 0
    outer loop
      vertex 14.1858 73 11.824
      vertex 18.6 73 11.45
      vertex 14.2712 73 11.5426
    endloop
  endfacet
  facet normal 0 1 0
    outer loop
      vertex 18.6 73 11.45
      vertex 14.3 73 11.25
      vertex 14.2712 73 11.5426
    endloop
  endfacet
  facet normal 0 1 0
    outer loop
      vertex 18.6 73 11.45
      vertex 14.2712 73 10.9574
      vertex 14.3 73 11.25
    endloop
  endfacet
  facet normal 0 1 0
    outer loop
      vertex 18.6 73 11.45
      vertex 14.1858 73 10.676
      vertex 14.2712 73 10.9574
    endloop
  endfacet
  facet normal 0 1 -0
    outer loop
      vertex 18.6 73 7.45
      vertex 14.1858 73 10.676
      vertex 18.6 73 11.45
    endloop
  endfacet
  facet normal 0 1 0
    outer loop
      vertex 14.1858 73 10.676
      vertex 18.6 73 7.45
      vertex 14.0472 73 10.4166
    endloop
  endfacet
  facet normal 0 1 0
    outer loop
      vertex 14.0472 73 10.4166
      vertex 18.6 73 7.45
      vertex 13.8607 73 10.1893
    endloop
  endfacet
  facet normal 0 1 0
    outer loop
      vertex 13.8607 73 10.1893
      vertex 18.6 73 7.45
      vertex 13.6334 73 10.0028
    endloop
  endfacet
  facet normal 0 1 0
    outer loop
      vertex 13.0926 73 9.77882
      vertex 18.6 73 7.45
      vertex 12.8 73 9.75
    endloop
  endfacet
  facet normal 0 1 0
    outer loop
      vertex 13.374 73 9.86418
      vertex 18.6 73 7.45
      vertex 13.0926 73 9.77882
    endloop
  endfacet
  facet normal 0 1 0
    outer loop
      vertex 13.6334 73 10.0028
      vertex 18.6 73 7.45
      vertex 13.374 73 9.86418
    endloop
  endfacet
  facet normal 0 1 -0
    outer loop
      vertex 12.5074 73 12.7212
      vertex 1 73 20
      vertex 12.8 73 12.75
    endloop
  endfacet
  facet normal 0 1 -0
    outer loop
      vertex 12.226 73 12.6358
      vertex 1 73 20
      vertex 12.5074 73 12.7212
    endloop
  endfacet
  facet normal 0 1 -0
    outer loop
      vertex 11.9666 73 12.4972
      vertex 1 73 20
      vertex 12.226 73 12.6358
    endloop
  endfacet
  facet normal 0 1 0
    outer loop
      vertex 7 73 11.45
      vertex 11.9666 73 12.4972
      vertex 11.7393 73 12.3107
    endloop
  endfacet
  facet normal 0 1 0
    outer loop
      vertex 7 73 11.45
      vertex 11.7393 73 12.3107
      vertex 11.5528 73 12.0834
    endloop
  endfacet
  facet normal 0 1 0
    outer loop
      vertex 7 73 11.45
      vertex 11.5528 73 12.0834
      vertex 11.4142 73 11.824
    endloop
  endfacet
  facet normal 0 1 0
    outer loop
      vertex 7 73 11.45
      vertex 11.4142 73 11.824
      vertex 11.3288 73 11.5426
    endloop
  endfacet
  facet normal 0 1 0
    outer loop
      vertex 11.9666 73 12.4972
      vertex 7 73 11.45
      vertex 1 73 20
    endloop
  endfacet
  facet normal 0 1 0
    outer loop
      vertex 1 73 20
      vertex 7 73 11.45
      vertex 1 73 11.45
    endloop
  endfacet
  facet normal 0 -1 0
    outer loop
      vertex 1 65 20
      vertex 3.2 65 4
      vertex 3.3 65 20
    endloop
  endfacet
  facet normal 0 -1 0
    outer loop
      vertex 1 65 0
      vertex 3.2 65 4
      vertex 1 65 20
    endloop
  endfacet
  facet normal 0 -1 -0
    outer loop
      vertex 3.2 65 4
      vertex 1 65 0
      vertex 3.2 65 0
    endloop
  endfacet
  facet normal 0 -1 -0
    outer loop
      vertex 3.3 65 20
      vertex 3.2 65 4
      vertex 3.3 65 4
    endloop
  endfacet
  facet normal 0 -1 0
    outer loop
      vertex 22.4 65 4
      vertex 22.3 65 20
      vertex 22.3 65 4
    endloop
  endfacet
  facet normal 0 -1 0
    outer loop
      vertex 22.3 65 20
      vertex 22.4 65 4
      vertex 24.6 65 20
    endloop
  endfacet
  facet normal 0 -1 0
    outer loop
      vertex 24.6 65 0
      vertex 22.4 65 4
      vertex 22.4 65 0
    endloop
  endfacet
  facet normal 0 -1 0
    outer loop
      vertex 22.4 65 4
      vertex 24.6 65 0
      vertex 24.6 65 20
    endloop
  endfacet
  facet normal -1 0 0
    outer loop
      vertex -5.2 2 9.25
      vertex -5.2 31 13.25
      vertex -5.2 31 9.25
    endloop
  endfacet
  facet normal -1 -0 0
    outer loop
      vertex -5.2 31 13.25
      vertex -5.2 2 9.25
      vertex -5.2 2 13.25
    endloop
  endfacet
  facet normal -0 0 1
    outer loop
      vertex -5.2 31 13.25
      vertex 0.0999994 2 13.25
      vertex 0.0999994 31 13.25
    endloop
  endfacet
  facet normal 0 0 1
    outer loop
      vertex 0.0999994 2 13.25
      vertex -5.2 31 13.25
      vertex -5.2 2 13.25
    endloop
  endfacet
  facet normal -0 0 1
    outer loop
      vertex 25.5 31 13.25
      vertex 30.8 2 13.25
      vertex 30.8 31 13.25
    endloop
  endfacet
  facet normal 0 0 1
    outer loop
      vertex 30.8 2 13.25
      vertex 25.5 31 13.25
      vertex 25.5 2 13.25
    endloop
  endfacet
  facet normal 1 -0 0
    outer loop
      vertex 30.8 2 13.25
      vertex 30.8 31 9.25
      vertex 30.8 31 13.25
    endloop
  endfacet
  facet normal 1 0 0
    outer loop
      vertex 30.8 31 9.25
      vertex 30.8 2 13.25
      vertex 30.8 2 9.25
    endloop
  endfacet
  facet normal 0 1 -0
    outer loop
      vertex 30.8 31 9.25
      vertex 25.5 31 13.25
      vertex 30.8 31 13.25
    endloop
  endfacet
  facet normal 0 1 0
    outer loop
      vertex 25.5 31 13.25
      vertex 30.8 31 9.25
      vertex 25.5 31 9.25
    endloop
  endfacet
  facet normal 0 1 -0
    outer loop
      vertex 0.0999994 31 9.25
      vertex -5.2 31 13.25
      vertex 0.0999994 31 13.25
    endloop
  endfacet
  facet normal 0 1 0
    outer loop
      vertex -5.2 31 13.25
      vertex 0.0999994 31 9.25
      vertex -5.2 31 9.25
    endloop
  endfacet
  facet normal 0 0 -1
    outer loop
      vertex -5.2 2 9.25
      vertex 0.0999994 31 9.25
      vertex 0.0999994 2 9.25
    endloop
  endfacet
  facet normal -0 0 -1
    outer loop
      vertex 0.0999994 31 9.25
      vertex -5.2 2 9.25
      vertex -5.2 31 9.25
    endloop
  endfacet
  facet normal 0 0 -1
    outer loop
      vertex 25.5 2 9.25
      vertex 30.8 31 9.25
      vertex 30.8 2 9.25
    endloop
  endfacet
  facet normal -0 0 -1
    outer loop
      vertex 30.8 31 9.25
      vertex 25.5 2 9.25
      vertex 25.5 31 9.25
    endloop
  endfacet
  facet normal 0 -1 0
    outer loop
      vertex -5.2 2 9.25
      vertex 0.0999994 2 13.25
      vertex -5.2 2 13.25
    endloop
  endfacet
  facet normal 0 -1 -0
    outer loop
      vertex 0.0999994 2 13.25
      vertex -5.2 2 9.25
      vertex 0.0999994 2 9.25
    endloop
  endfacet
  facet normal 0 -1 0
    outer loop
      vertex 25.5 2 9.25
      vertex 30.8 2 13.25
      vertex 25.5 2 13.25
    endloop
  endfacet
  facet normal 0 -1 -0
    outer loop
      vertex 30.8 2 13.25
      vertex 25.5 2 9.25
      vertex 30.8 2 9.25
    endloop
  endfacet
  facet normal -0 0 1
    outer loop
      vertex 1 79 11.45
      vertex 7 73 11.45
      vertex 7 79 11.45
    endloop
  endfacet
  facet normal 0 0 1
    outer loop
      vertex 7 73 11.45
      vertex 1 79 11.45
      vertex 1 73 11.45
    endloop
  endfacet
  facet normal 1 -0 0
    outer loop
      vertex 7 73 11.45
      vertex 7 79 7.45
      vertex 7 79 11.45
    endloop
  endfacet
  facet normal 1 0 0
    outer loop
      vertex 7 79 7.45
      vertex 7 73 11.45
      vertex 7 73 7.45
    endloop
  endfacet
  facet normal 0 0 -1
    outer loop
      vertex 1 73 7.45
      vertex 7 79 7.45
      vertex 7 73 7.45
    endloop
  endfacet
  facet normal -0 0 -1
    outer loop
      vertex 7 79 7.45
      vertex 1 73 7.45
      vertex 1 79 7.45
    endloop
  endfacet
  facet normal 0 1 -0
    outer loop
      vertex 7 79 7.45
      vertex 1 79 11.45
      vertex 7 79 11.45
    endloop
  endfacet
  facet normal 0 1 0
    outer loop
      vertex 1 79 11.45
      vertex 7 79 7.45
      vertex 1 79 7.45
    endloop
  endfacet
  facet normal -1 0 0
    outer loop
      vertex 18.6 73 7.45
      vertex 18.6 79 11.45
      vertex 18.6 79 7.45
    endloop
  endfacet
  facet normal -1 -0 0
    outer loop
      vertex 18.6 79 11.45
      vertex 18.6 73 7.45
      vertex 18.6 73 11.45
    endloop
  endfacet
  facet normal -0 0 1
    outer loop
      vertex 18.6 79 11.45
      vertex 24.6 73 11.45
      vertex 24.6 79 11.45
    endloop
  endfacet
  facet normal 0 0 1
    outer loop
      vertex 24.6 73 11.45
      vertex 18.6 79 11.45
      vertex 18.6 73 11.45
    endloop
  endfacet
  facet normal 0 1 -0
    outer loop
      vertex 24.6 79 7.45
      vertex 18.6 79 11.45
      vertex 24.6 79 11.45
    endloop
  endfacet
  facet normal 0 1 0
    outer loop
      vertex 18.6 79 11.45
      vertex 24.6 79 7.45
      vertex 18.6 79 7.45
    endloop
  endfacet
  facet normal 0 0 -1
    outer loop
      vertex 18.6 73 7.45
      vertex 24.6 79 7.45
      vertex 24.6 73 7.45
    endloop
  endfacet
  facet normal -0 0 -1
    outer loop
      vertex 24.6 79 7.45
      vertex 18.6 73 7.45
      vertex 18.6 79 7.45
    endloop
  endfacet
  facet normal 1 -0 0
    outer loop
      vertex 3.3 1 20
      vertex 3.3 32 4
      vertex 3.3 32 20
    endloop
  endfacet
  facet normal 1 0 0
    outer loop
      vertex 3.3 32 4
      vertex 3.3 1 20
      vertex 3.3 1 4
    endloop
  endfacet
  facet normal 1 -0 0
    outer loop
      vertex 3.3 65 20
      vertex 3.3 71 4
      vertex 3.3 71 20
    endloop
  endfacet
  facet normal 1 0 0
    outer loop
      vertex 3.3 71 4
      vertex 3.3 65 20
      vertex 3.3 65 4
    endloop
  endfacet
  facet normal -1 0 0
    outer loop
      vertex 22.3 1 4
      vertex 22.3 32 20
      vertex 22.3 32 4
    endloop
  endfacet
  facet normal -1 -0 0
    outer loop
      vertex 22.3 32 20
      vertex 22.3 1 4
      vertex 22.3 1 20
    endloop
  endfacet
  facet normal -1 0 0
    outer loop
      vertex 22.3 65 4
      vertex 22.3 71 20
      vertex 22.3 71 4
    endloop
  endfacet
  facet normal -1 -0 0
    outer loop
      vertex 22.3 71 20
      vertex 22.3 65 4
      vertex 22.3 65 20
    endloop
  endfacet
  facet normal -0.995185 0 -0.0980169
    outer loop
      vertex 14.3 -1 11.25
      vertex 14.2712 1 11.5426
      vertex 14.3 1 11.25
    endloop
  endfacet
  facet normal -0.995185 -0 -0.0980169
    outer loop
      vertex 14.2712 1 11.5426
      vertex 14.3 -1 11.25
      vertex 14.2712 -1 11.5426
    endloop
  endfacet
  facet normal -0.995185 0 -0.0980169
    outer loop
      vertex 14.3 71 11.25
      vertex 14.2712 73 11.5426
      vertex 14.3 73 11.25
    endloop
  endfacet
  facet normal -0.995185 -0 -0.0980169
    outer loop
      vertex 14.2712 73 11.5426
      vertex 14.3 71 11.25
      vertex 14.2712 71 11.5426
    endloop
  endfacet
  facet normal -0.995185 0 0.0980165
    outer loop
      vertex 14.2712 -1 10.9574
      vertex 14.3 1 11.25
      vertex 14.2712 1 10.9574
    endloop
  endfacet
  facet normal -0.995185 0 0.0980165
    outer loop
      vertex 14.3 1 11.25
      vertex 14.2712 -1 10.9574
      vertex 14.3 -1 11.25
    endloop
  endfacet
  facet normal -0.995185 0 0.0980165
    outer loop
      vertex 14.2712 71 10.9574
      vertex 14.3 73 11.25
      vertex 14.2712 73 10.9574
    endloop
  endfacet
  facet normal -0.995185 0 0.0980165
    outer loop
      vertex 14.3 73 11.25
      vertex 14.2712 71 10.9574
      vertex 14.3 71 11.25
    endloop
  endfacet
  facet normal -0.471395 0 -0.881922
    outer loop
      vertex 13.374 -1 12.6358
      vertex 13.6334 1 12.4972
      vertex 13.6334 -1 12.4972
    endloop
  endfacet
  facet normal -0.471395 0 -0.881922
    outer loop
      vertex 13.6334 1 12.4972
      vertex 13.374 -1 12.6358
      vertex 13.374 1 12.6358
    endloop
  endfacet
  facet normal -0.471395 0 -0.881922
    outer loop
      vertex 13.374 71 12.6358
      vertex 13.6334 73 12.4972
      vertex 13.6334 71 12.4972
    endloop
  endfacet
  facet normal -0.471395 0 -0.881922
    outer loop
      vertex 13.6334 73 12.4972
      vertex 13.374 71 12.6358
      vertex 13.374 73 12.6358
    endloop
  endfacet
  facet normal 0.471397 0 -0.881921
    outer loop
      vertex 11.9666 -1 12.4972
      vertex 12.226 1 12.6358
      vertex 12.226 -1 12.6358
    endloop
  endfacet
  facet normal 0.471397 0 -0.881921
    outer loop
      vertex 12.226 1 12.6358
      vertex 11.9666 -1 12.4972
      vertex 11.9666 1 12.4972
    endloop
  endfacet
  facet normal 0.471397 0 -0.881921
    outer loop
      vertex 11.9666 71 12.4972
      vertex 12.226 73 12.6358
      vertex 12.226 71 12.6358
    endloop
  endfacet
  facet normal 0.471397 0 -0.881921
    outer loop
      vertex 12.226 73 12.6358
      vertex 11.9666 71 12.4972
      vertex 11.9666 73 12.4972
    endloop
  endfacet
  facet normal 0.95694 0 -0.290285
    outer loop
      vertex 11.4142 -1 11.824
      vertex 11.3288 1 11.5426
      vertex 11.4142 1 11.824
    endloop
  endfacet
  facet normal 0.95694 0 -0.290285
    outer loop
      vertex 11.3288 1 11.5426
      vertex 11.4142 -1 11.824
      vertex 11.3288 -1 11.5426
    endloop
  endfacet
  facet normal 0.95694 0 -0.290285
    outer loop
      vertex 11.4142 71 11.824
      vertex 11.3288 73 11.5426
      vertex 11.4142 73 11.824
    endloop
  endfacet
  facet normal 0.95694 0 -0.290285
    outer loop
      vertex 11.3288 73 11.5426
      vertex 11.4142 71 11.824
      vertex 11.3288 71 11.5426
    endloop
  endfacet
  facet normal -0.881922 0 -0.471395
    outer loop
      vertex 14.1858 -1 11.824
      vertex 14.0472 1 12.0834
      vertex 14.1858 1 11.824
    endloop
  endfacet
  facet normal -0.881922 -0 -0.471395
    outer loop
      vertex 14.0472 1 12.0834
      vertex 14.1858 -1 11.824
      vertex 14.0472 -1 12.0834
    endloop
  endfacet
  facet normal -0.881922 0 -0.471395
    outer loop
      vertex 14.1858 71 11.824
      vertex 14.0472 73 12.0834
      vertex 14.1858 73 11.824
    endloop
  endfacet
  facet normal -0.881922 -0 -0.471395
    outer loop
      vertex 14.0472 73 12.0834
      vertex 14.1858 71 11.824
      vertex 14.0472 71 12.0834
    endloop
  endfacet
  facet normal -0.634394 0 -0.77301
    outer loop
      vertex 13.6334 -1 12.4972
      vertex 13.8607 1 12.3107
      vertex 13.8607 -1 12.3107
    endloop
  endfacet
  facet normal -0.634394 0 -0.77301
    outer loop
      vertex 13.8607 1 12.3107
      vertex 13.6334 -1 12.4972
      vertex 13.6334 1 12.4972
    endloop
  endfacet
  facet normal -0.634394 0 -0.77301
    outer loop
      vertex 13.6334 71 12.4972
      vertex 13.8607 73 12.3107
      vertex 13.8607 71 12.3107
    endloop
  endfacet
  facet normal -0.634394 0 -0.77301
    outer loop
      vertex 13.8607 73 12.3107
      vertex 13.6334 71 12.4972
      vertex 13.6334 73 12.4972
    endloop
  endfacet
  facet normal -0.290285 0 -0.95694
    outer loop
      vertex 13.0926 -1 12.7212
      vertex 13.374 1 12.6358
      vertex 13.374 -1 12.6358
    endloop
  endfacet
  facet normal -0.290285 0 -0.95694
    outer loop
      vertex 13.374 1 12.6358
      vertex 13.0926 -1 12.7212
      vertex 13.0926 1 12.7212
    endloop
  endfacet
  facet normal -0.290285 0 -0.95694
    outer loop
      vertex 13.0926 71 12.7212
      vertex 13.374 73 12.6358
      vertex 13.374 71 12.6358
    endloop
  endfacet
  facet normal -0.290285 0 -0.95694
    outer loop
      vertex 13.374 73 12.6358
      vertex 13.0926 71 12.7212
      vertex 13.0926 73 12.7212
    endloop
  endfacet
  facet normal 0.0980201 0 -0.995184
    outer loop
      vertex 12.5074 -1 12.7212
      vertex 12.8 1 12.75
      vertex 12.8 -1 12.75
    endloop
  endfacet
  facet normal 0.0980201 0 -0.995184
    outer loop
      vertex 12.8 1 12.75
      vertex 12.5074 -1 12.7212
      vertex 12.5074 1 12.7212
    endloop
  endfacet
  facet normal 0.0980201 0 -0.995184
    outer loop
      vertex 12.5074 71 12.7212
      vertex 12.8 73 12.75
      vertex 12.8 71 12.75
    endloop
  endfacet
  facet normal 0.0980201 0 -0.995184
    outer loop
      vertex 12.8 73 12.75
      vertex 12.5074 71 12.7212
      vertex 12.5074 73 12.7212
    endloop
  endfacet
  facet normal 0.995185 -0 0.0980165
    outer loop
      vertex 11.3 -1 11.25
      vertex 11.3288 1 10.9574
      vertex 11.3 1 11.25
    endloop
  endfacet
  facet normal 0.995185 0 0.0980165
    outer loop
      vertex 11.3288 1 10.9574
      vertex 11.3 -1 11.25
      vertex 11.3288 -1 10.9574
    endloop
  endfacet
  facet normal 0.995185 -0 0.0980165
    outer loop
      vertex 11.3 71 11.25
      vertex 11.3288 73 10.9574
      vertex 11.3 73 11.25
    endloop
  endfacet
  facet normal 0.995185 0 0.0980165
    outer loop
      vertex 11.3288 73 10.9574
      vertex 11.3 71 11.25
      vertex 11.3288 71 10.9574
    endloop
  endfacet
  facet normal 0.881921 0 -0.471398
    outer loop
      vertex 11.5528 -1 12.0834
      vertex 11.4142 1 11.824
      vertex 11.5528 1 12.0834
    endloop
  endfacet
  facet normal 0.881921 0 -0.471398
    outer loop
      vertex 11.4142 1 11.824
      vertex 11.5528 -1 12.0834
      vertex 11.4142 -1 11.824
    endloop
  endfacet
  facet normal 0.881921 0 -0.471398
    outer loop
      vertex 11.5528 71 12.0834
      vertex 11.4142 73 11.824
      vertex 11.5528 73 12.0834
    endloop
  endfacet
  facet normal 0.881921 0 -0.471398
    outer loop
      vertex 11.4142 73 11.824
      vertex 11.5528 71 12.0834
      vertex 11.4142 71 11.824
    endloop
  endfacet
  facet normal -0.881922 0 0.471395
    outer loop
      vertex 14.0472 -1 10.4166
      vertex 14.1858 1 10.676
      vertex 14.0472 1 10.4166
    endloop
  endfacet
  facet normal -0.881922 0 0.471395
    outer loop
      vertex 14.1858 1 10.676
      vertex 14.0472 -1 10.4166
      vertex 14.1858 -1 10.676
    endloop
  endfacet
  facet normal -0.881922 0 0.471395
    outer loop
      vertex 14.0472 71 10.4166
      vertex 14.1858 73 10.676
      vertex 14.0472 73 10.4166
    endloop
  endfacet
  facet normal -0.881922 0 0.471395
    outer loop
      vertex 14.1858 73 10.676
      vertex 14.0472 71 10.4166
      vertex 14.1858 71 10.676
    endloop
  endfacet
  facet normal -0.471395 0 0.881922
    outer loop
      vertex 13.374 1 9.86418
      vertex 13.6334 -1 10.0028
      vertex 13.6334 1 10.0028
    endloop
  endfacet
  facet normal -0.471395 0 0.881922
    outer loop
      vertex 13.6334 -1 10.0028
      vertex 13.374 1 9.86418
      vertex 13.374 -1 9.86418
    endloop
  endfacet
  facet normal -0.471395 0 0.881922
    outer loop
      vertex 13.374 73 9.86418
      vertex 13.6334 71 10.0028
      vertex 13.6334 73 10.0028
    endloop
  endfacet
  facet normal -0.471395 0 0.881922
    outer loop
      vertex 13.6334 71 10.0028
      vertex 13.374 73 9.86418
      vertex 13.374 71 9.86418
    endloop
  endfacet
  facet normal 0.0980169 0 0.995185
    outer loop
      vertex 12.5074 1 9.77882
      vertex 12.8 -1 9.75
      vertex 12.8 1 9.75
    endloop
  endfacet
  facet normal 0.0980169 0 0.995185
    outer loop
      vertex 12.8 -1 9.75
      vertex 12.5074 1 9.77882
      vertex 12.5074 -1 9.77882
    endloop
  endfacet
  facet normal 0.0980169 0 0.995185
    outer loop
      vertex 12.5074 73 9.77882
      vertex 12.8 71 9.75
      vertex 12.8 73 9.75
    endloop
  endfacet
  facet normal 0.0980169 0 0.995185
    outer loop
      vertex 12.8 71 9.75
      vertex 12.5074 73 9.77882
      vertex 12.5074 71 9.77882
    endloop
  endfacet
  facet normal 0.773011 -0 0.634392
    outer loop
      vertex 11.5528 -1 10.4166
      vertex 11.7393 1 10.1893
      vertex 11.5528 1 10.4166
    endloop
  endfacet
  facet normal 0.773011 0 0.634392
    outer loop
      vertex 11.7393 1 10.1893
      vertex 11.5528 -1 10.4166
      vertex 11.7393 -1 10.1893
    endloop
  endfacet
  facet normal 0.773011 -0 0.634392
    outer loop
      vertex 11.5528 71 10.4166
      vertex 11.7393 73 10.1893
      vertex 11.5528 73 10.4166
    endloop
  endfacet
  facet normal 0.773011 0 0.634392
    outer loop
      vertex 11.7393 73 10.1893
      vertex 11.5528 71 10.4166
      vertex 11.7393 71 10.1893
    endloop
  endfacet
  facet normal -0.95694 0 -0.290285
    outer loop
      vertex 14.2712 -1 11.5426
      vertex 14.1858 1 11.824
      vertex 14.2712 1 11.5426
    endloop
  endfacet
  facet normal -0.95694 -0 -0.290285
    outer loop
      vertex 14.1858 1 11.824
      vertex 14.2712 -1 11.5426
      vertex 14.1858 -1 11.824
    endloop
  endfacet
  facet normal -0.95694 0 -0.290285
    outer loop
      vertex 14.2712 71 11.5426
      vertex 14.1858 73 11.824
      vertex 14.2712 73 11.5426
    endloop
  endfacet
  facet normal -0.95694 -0 -0.290285
    outer loop
      vertex 14.1858 73 11.824
      vertex 14.2712 71 11.5426
      vertex 14.1858 71 11.824
    endloop
  endfacet
  facet normal -0.77301 0 -0.634394
    outer loop
      vertex 14.0472 -1 12.0834
      vertex 13.8607 1 12.3107
      vertex 14.0472 1 12.0834
    endloop
  endfacet
  facet normal -0.77301 -0 -0.634394
    outer loop
      vertex 13.8607 1 12.3107
      vertex 14.0472 -1 12.0834
      vertex 13.8607 -1 12.3107
    endloop
  endfacet
  facet normal -0.77301 0 -0.634394
    outer loop
      vertex 14.0472 71 12.0834
      vertex 13.8607 73 12.3107
      vertex 14.0472 73 12.0834
    endloop
  endfacet
  facet normal -0.77301 -0 -0.634394
    outer loop
      vertex 13.8607 73 12.3107
      vertex 14.0472 71 12.0834
      vertex 13.8607 71 12.3107
    endloop
  endfacet
  facet normal -0.0980198 0 -0.995184
    outer loop
      vertex 12.8 -1 12.75
      vertex 13.0926 1 12.7212
      vertex 13.0926 -1 12.7212
    endloop
  endfacet
  facet normal -0.0980198 0 -0.995184
    outer loop
      vertex 13.0926 1 12.7212
      vertex 12.8 -1 12.75
      vertex 12.8 1 12.75
    endloop
  endfacet
  facet normal -0.0980198 0 -0.995184
    outer loop
      vertex 12.8 71 12.75
      vertex 13.0926 73 12.7212
      vertex 13.0926 71 12.7212
    endloop
  endfacet
  facet normal -0.0980198 0 -0.995184
    outer loop
      vertex 13.0926 73 12.7212
      vertex 12.8 71 12.75
      vertex 12.8 73 12.75
    endloop
  endfacet
  facet normal 0.995185 0 -0.0980169
    outer loop
      vertex 11.3288 -1 11.5426
      vertex 11.3 1 11.25
      vertex 11.3288 1 11.5426
    endloop
  endfacet
  facet normal 0.995185 0 -0.0980169
    outer loop
      vertex 11.3 1 11.25
      vertex 11.3288 -1 11.5426
      vertex 11.3 -1 11.25
    endloop
  endfacet
  facet normal 0.995185 0 -0.0980169
    outer loop
      vertex 11.3288 71 11.5426
      vertex 11.3 73 11.25
      vertex 11.3288 73 11.5426
    endloop
  endfacet
  facet normal 0.995185 0 -0.0980169
    outer loop
      vertex 11.3 73 11.25
      vertex 11.3288 71 11.5426
      vertex 11.3 71 11.25
    endloop
  endfacet
  facet normal 0.290284 0 -0.95694
    outer loop
      vertex 12.226 -1 12.6358
      vertex 12.5074 1 12.7212
      vertex 12.5074 -1 12.7212
    endloop
  endfacet
  facet normal 0.290284 0 -0.95694
    outer loop
      vertex 12.5074 1 12.7212
      vertex 12.226 -1 12.6358
      vertex 12.226 1 12.6358
    endloop
  endfacet
  facet normal 0.290284 0 -0.95694
    outer loop
      vertex 12.226 71 12.6358
      vertex 12.5074 73 12.7212
      vertex 12.5074 71 12.7212
    endloop
  endfacet
  facet normal 0.290284 0 -0.95694
    outer loop
      vertex 12.5074 73 12.7212
      vertex 12.226 71 12.6358
      vertex 12.226 73 12.6358
    endloop
  endfacet
  facet normal 0.634393 0 -0.773011
    outer loop
      vertex 11.7393 -1 12.3107
      vertex 11.9666 1 12.4972
      vertex 11.9666 -1 12.4972
    endloop
  endfacet
  facet normal 0.634393 0 -0.773011
    outer loop
      vertex 11.9666 1 12.4972
      vertex 11.7393 -1 12.3107
      vertex 11.7393 1 12.3107
    endloop
  endfacet
  facet normal 0.634393 0 -0.773011
    outer loop
      vertex 11.7393 71 12.3107
      vertex 11.9666 73 12.4972
      vertex 11.9666 71 12.4972
    endloop
  endfacet
  facet normal 0.634393 0 -0.773011
    outer loop
      vertex 11.9666 73 12.4972
      vertex 11.7393 71 12.3107
      vertex 11.7393 73 12.3107
    endloop
  endfacet
  facet normal 0.773011 0 -0.634392
    outer loop
      vertex 11.7393 -1 12.3107
      vertex 11.5528 1 12.0834
      vertex 11.7393 1 12.3107
    endloop
  endfacet
  facet normal 0.773011 0 -0.634392
    outer loop
      vertex 11.5528 1 12.0834
      vertex 11.7393 -1 12.3107
      vertex 11.5528 -1 12.0834
    endloop
  endfacet
  facet normal 0.773011 0 -0.634392
    outer loop
      vertex 11.7393 71 12.3107
      vertex 11.5528 73 12.0834
      vertex 11.7393 73 12.3107
    endloop
  endfacet
  facet normal 0.773011 0 -0.634392
    outer loop
      vertex 11.5528 73 12.0834
      vertex 11.7393 71 12.3107
      vertex 11.5528 71 12.0834
    endloop
  endfacet
  facet normal -0.290285 0 0.95694
    outer loop
      vertex 13.0926 1 9.77882
      vertex 13.374 -1 9.86418
      vertex 13.374 1 9.86418
    endloop
  endfacet
  facet normal -0.290285 0 0.95694
    outer loop
      vertex 13.374 -1 9.86418
      vertex 13.0926 1 9.77882
      vertex 13.0926 -1 9.77882
    endloop
  endfacet
  facet normal -0.290285 0 0.95694
    outer loop
      vertex 13.0926 73 9.77882
      vertex 13.374 71 9.86418
      vertex 13.374 73 9.86418
    endloop
  endfacet
  facet normal -0.290285 0 0.95694
    outer loop
      vertex 13.374 71 9.86418
      vertex 13.0926 73 9.77882
      vertex 13.0926 71 9.77882
    endloop
  endfacet
  facet normal -0.634394 0 0.77301
    outer loop
      vertex 13.6334 1 10.0028
      vertex 13.8607 -1 10.1893
      vertex 13.8607 1 10.1893
    endloop
  endfacet
  facet normal -0.634394 0 0.77301
    outer loop
      vertex 13.8607 -1 10.1893
      vertex 13.6334 1 10.0028
      vertex 13.6334 -1 10.0028
    endloop
  endfacet
  facet normal -0.634394 0 0.77301
    outer loop
      vertex 13.6334 73 10.0028
      vertex 13.8607 71 10.1893
      vertex 13.8607 73 10.1893
    endloop
  endfacet
  facet normal -0.634394 0 0.77301
    outer loop
      vertex 13.8607 71 10.1893
      vertex 13.6334 73 10.0028
      vertex 13.6334 71 10.0028
    endloop
  endfacet
  facet normal -0.77301 0 0.634394
    outer loop
      vertex 13.8607 -1 10.1893
      vertex 14.0472 1 10.4166
      vertex 13.8607 1 10.1893
    endloop
  endfacet
  facet normal -0.77301 0 0.634394
    outer loop
      vertex 14.0472 1 10.4166
      vertex 13.8607 -1 10.1893
      vertex 14.0472 -1 10.4166
    endloop
  endfacet
  facet normal -0.77301 0 0.634394
    outer loop
      vertex 13.8607 71 10.1893
      vertex 14.0472 73 10.4166
      vertex 13.8607 73 10.1893
    endloop
  endfacet
  facet normal -0.77301 0 0.634394
    outer loop
      vertex 14.0472 73 10.4166
      vertex 13.8607 71 10.1893
      vertex 14.0472 71 10.4166
    endloop
  endfacet
  facet normal -0.95694 0 0.290285
    outer loop
      vertex 14.1858 -1 10.676
      vertex 14.2712 1 10.9574
      vertex 14.1858 1 10.676
    endloop
  endfacet
  facet normal -0.95694 0 0.290285
    outer loop
      vertex 14.2712 1 10.9574
      vertex 14.1858 -1 10.676
      vertex 14.2712 -1 10.9574
    endloop
  endfacet
  facet normal -0.95694 0 0.290285
    outer loop
      vertex 14.1858 71 10.676
      vertex 14.2712 73 10.9574
      vertex 14.1858 73 10.676
    endloop
  endfacet
  facet normal -0.95694 0 0.290285
    outer loop
      vertex 14.2712 73 10.9574
      vertex 14.1858 71 10.676
      vertex 14.2712 71 10.9574
    endloop
  endfacet
  facet normal -0.0980165 0 0.995185
    outer loop
      vertex 12.8 1 9.75
      vertex 13.0926 -1 9.77882
      vertex 13.0926 1 9.77882
    endloop
  endfacet
  facet normal -0.0980165 0 0.995185
    outer loop
      vertex 13.0926 -1 9.77882
      vertex 12.8 1 9.75
      vertex 12.8 -1 9.75
    endloop
  endfacet
  facet normal -0.0980165 0 0.995185
    outer loop
      vertex 12.8 73 9.75
      vertex 13.0926 71 9.77882
      vertex 13.0926 73 9.77882
    endloop
  endfacet
  facet normal -0.0980165 0 0.995185
    outer loop
      vertex 13.0926 71 9.77882
      vertex 12.8 73 9.75
      vertex 12.8 71 9.75
    endloop
  endfacet
  facet normal 0.471397 0 0.881921
    outer loop
      vertex 11.9666 1 10.0028
      vertex 12.226 -1 9.86418
      vertex 12.226 1 9.86418
    endloop
  endfacet
  facet normal 0.471397 0 0.881921
    outer loop
      vertex 12.226 -1 9.86418
      vertex 11.9666 1 10.0028
      vertex 11.9666 -1 10.0028
    endloop
  endfacet
  facet normal 0.471397 0 0.881921
    outer loop
      vertex 11.9666 73 10.0028
      vertex 12.226 71 9.86418
      vertex 12.226 73 9.86418
    endloop
  endfacet
  facet normal 0.471397 0 0.881921
    outer loop
      vertex 12.226 71 9.86418
      vertex 11.9666 73 10.0028
      vertex 11.9666 71 10.0028
    endloop
  endfacet
  facet normal 0.290284 0 0.95694
    outer loop
      vertex 12.226 1 9.86418
      vertex 12.5074 -1 9.77882
      vertex 12.5074 1 9.77882
    endloop
  endfacet
  facet normal 0.290284 0 0.95694
    outer loop
      vertex 12.5074 -1 9.77882
      vertex 12.226 1 9.86418
      vertex 12.226 -1 9.86418
    endloop
  endfacet
  facet normal 0.290284 0 0.95694
    outer loop
      vertex 12.226 73 9.86418
      vertex 12.5074 71 9.77882
      vertex 12.5074 73 9.77882
    endloop
  endfacet
  facet normal 0.290284 0 0.95694
    outer loop
      vertex 12.5074 71 9.77882
      vertex 12.226 73 9.86418
      vertex 12.226 71 9.86418
    endloop
  endfacet
  facet normal 0.95694 -0 0.290285
    outer loop
      vertex 11.3288 -1 10.9574
      vertex 11.4142 1 10.676
      vertex 11.3288 1 10.9574
    endloop
  endfacet
  facet normal 0.95694 0 0.290285
    outer loop
      vertex 11.4142 1 10.676
      vertex 11.3288 -1 10.9574
      vertex 11.4142 -1 10.676
    endloop
  endfacet
  facet normal 0.95694 -0 0.290285
    outer loop
      vertex 11.3288 71 10.9574
      vertex 11.4142 73 10.676
      vertex 11.3288 73 10.9574
    endloop
  endfacet
  facet normal 0.95694 0 0.290285
    outer loop
      vertex 11.4142 73 10.676
      vertex 11.3288 71 10.9574
      vertex 11.4142 71 10.676
    endloop
  endfacet
  facet normal 0.881921 -0 0.471398
    outer loop
      vertex 11.4142 -1 10.676
      vertex 11.5528 1 10.4166
      vertex 11.4142 1 10.676
    endloop
  endfacet
  facet normal 0.881921 0 0.471398
    outer loop
      vertex 11.5528 1 10.4166
      vertex 11.4142 -1 10.676
      vertex 11.5528 -1 10.4166
    endloop
  endfacet
  facet normal 0.881921 -0 0.471398
    outer loop
      vertex 11.4142 71 10.676
      vertex 11.5528 73 10.4166
      vertex 11.4142 73 10.676
    endloop
  endfacet
  facet normal 0.881921 0 0.471398
    outer loop
      vertex 11.5528 73 10.4166
      vertex 11.4142 71 10.676
      vertex 11.5528 71 10.4166
    endloop
  endfacet
  facet normal 0.634393 0 0.773011
    outer loop
      vertex 11.7393 1 10.1893
      vertex 11.9666 -1 10.0028
      vertex 11.9666 1 10.0028
    endloop
  endfacet
  facet normal 0.634393 0 0.773011
    outer loop
      vertex 11.9666 -1 10.0028
      vertex 11.7393 1 10.1893
      vertex 11.7393 -1 10.1893
    endloop
  endfacet
  facet normal 0.634393 0 0.773011
    outer loop
      vertex 11.7393 73 10.1893
      vertex 11.9666 71 10.0028
      vertex 11.9666 73 10.0028
    endloop
  endfacet
  facet normal 0.634393 0 0.773011
    outer loop
      vertex 11.9666 71 10.0028
      vertex 11.7393 73 10.1893
      vertex 11.7393 71 10.1893
    endloop
  endfacet
  facet normal -1 0 0
    outer loop
      vertex 7.8 -3 0
      vertex 7.8 -1 2
      vertex 7.8 -1 0
    endloop
  endfacet
  facet normal -1 -0 0
    outer loop
      vertex 7.8 -1 2
      vertex 7.8 -3 0
      vertex 7.8 -3 2
    endloop
  endfacet
  facet normal -0 0 1
    outer loop
      vertex 7.8 -1 2
      vertex 17.8 -3 2
      vertex 17.8 -1 2
    endloop
  endfacet
  facet normal 0 0 1
    outer loop
      vertex 17.8 -3 2
      vertex 7.8 -1 2
      vertex 7.8 -3 2
    endloop
  endfacet
  facet normal 1 -0 0
    outer loop
      vertex 17.8 -3 2
      vertex 17.8 -1 0
      vertex 17.8 -1 2
    endloop
  endfacet
  facet normal 1 0 0
    outer loop
      vertex 17.8 -1 0
      vertex 17.8 -3 2
      vertex 17.8 -3 0
    endloop
  endfacet
  facet normal 0 -1 0
    outer loop
      vertex 7.8 -3 0
      vertex 17.8 -3 2
      vertex 7.8 -3 2
    endloop
  endfacet
  facet normal 0 -1 -0
    outer loop
      vertex 17.8 -3 2
      vertex 7.8 -3 0
      vertex 17.8 -3 0
    endloop
  endfacet
endsolid OpenSCAD_Model
